<svg id="google-icon-logo-svgrepo-com" xmlns="http://www.w3.org/2000/svg" width="37.285" height="38.045" viewBox="0 0 37.285 38.045">
  <path id="Path_1" data-name="Path 1" d="M148.812,110.65a16.3,16.3,0,0,0-.4-3.889H130.55v7.06h10.484a9.3,9.3,0,0,1-3.889,6.172l-.036.236,5.647,4.375.391.039c3.593-3.318,5.665-8.2,5.665-13.992" transform="translate(-111.527 -91.205)" fill="#4285f4"/>
  <path id="Path_2" data-name="Path 2" d="M30.919,171.631a18.131,18.131,0,0,0,12.6-4.608l-6-4.65a11.259,11.259,0,0,1-6.595,1.9,11.452,11.452,0,0,1-10.822-7.9l-.223.019L14,160.933l-.077.213a19.009,19.009,0,0,0,16.994,10.484" transform="translate(-11.896 -133.585)" fill="#34a853"/>
  <path id="Path_3" data-name="Path 3" d="M8.2,83.706a11.711,11.711,0,0,1-.634-3.762,12.306,12.306,0,0,1,.613-3.762l-.011-.252L2.224,71.312l-.195.093a18.983,18.983,0,0,0,0,17.078L8.2,83.706" transform="translate(0 -60.921)" fill="#fbbc05"/>
  <path id="Path_4" data-name="Path 4" d="M30.919,7.355a10.543,10.543,0,0,1,7.355,2.832l5.369-5.242A18.277,18.277,0,0,0,30.919,0,19.009,19.009,0,0,0,13.925,10.484l6.151,4.777A11.5,11.5,0,0,1,30.919,7.355" transform="translate(-11.896)" fill="#eb4335"/>
</svg>
