<svg xmlns="http://www.w3.org/2000/svg" width="240" height="38.046" viewBox="0 0 240 38.046">
  <g id="stars" transform="translate(-307 -5726)">
    <path id="star-sharp-sharp-solid" d="M38.9,0l4.719,14.535H58.9L46.543,23.511l4.719,14.535L38.9,29.062,26.539,38.046l4.719-14.535L18.9,14.535H34.178Z" transform="translate(288.1 5726)" fill="#f0b214"/>
    <path id="star-sharp-sharp-solid-2" data-name="star-sharp-sharp-solid" d="M38.9,0l4.719,14.535H58.9L46.543,23.511l4.719,14.535L38.9,29.062,26.539,38.046l4.719-14.535L18.9,14.535H34.178Z" transform="translate(338.1 5726)" fill="#f0b214"/>
    <path id="star-sharp-sharp-solid-3" data-name="star-sharp-sharp-solid" d="M38.9,0l4.719,14.535H58.9L46.543,23.511l4.719,14.535L38.9,29.062,26.539,38.046l4.719-14.535L18.9,14.535H34.178Z" transform="translate(388.1 5726)" fill="#f0b214"/>
    <path id="star-sharp-sharp-solid-4" data-name="star-sharp-sharp-solid" d="M38.9,0l4.719,14.535H58.9L46.543,23.511l4.719,14.535L38.9,29.062,26.539,38.046l4.719-14.535L18.9,14.535H34.178Z" transform="translate(438.1 5726)" fill="#f0b214"/>
    <path id="star-sharp-sharp-solid-5" data-name="star-sharp-sharp-solid" d="M38.9,0l4.719,14.535H58.9L46.543,23.511l4.719,14.535L38.9,29.062,26.539,38.046l4.719-14.535L18.9,14.535H34.178Z" transform="translate(488.1 5726)" fill="#f0b214"/>
  </g>
</svg>
